<?xml version="1.0" encoding="UTF-8"?>
<svg id="Calque_1" data-name="Calque 1" xmlns="http://www.w3.org/2000/svg" xmlns:xlink="http://www.w3.org/1999/xlink" viewBox="0 0 295.16 98.67">
  <defs>
    <style>
      .cls-1 {
        clip-path: url(#clippath-2);
      }

      .cls-2 {
        clip-path: url(#clippath-1);
      }

      .cls-3 {
        clip-path: url(#clippath);
      }

      .cls-4 {
        fill: none;
      }

      .cls-5 {
        fill: #ff8000;
      }
    </style>
    <clipPath id="clippath">
      <rect class="cls-4" x="63.97" width="172" height="98.67"/>
    </clipPath>
    <clipPath id="clippath-1">
      <rect class="cls-4" x="86.64" y="-31.47" width="122" height="159" transform="translate(71.46 183.31) rotate(-78.64)"/>
    </clipPath>
    <clipPath id="clippath-2">
      <rect class="cls-4" x="86.64" y="-31.47" width="122" height="159" transform="translate(71.46 183.31) rotate(-78.64)"/>
    </clipPath>
    <clipPath id="clippath-3">
      <rect class="cls-4" x=".26" y="109.9" width="172" height="98.67"/>
    </clipPath>
    <clipPath id="clippath-4">
      <rect class="cls-4" x="22.92" y="78.43" width="122" height="159" transform="translate(-87.44 209.09) rotate(-78.64)"/>
    </clipPath>
  </defs>
  <g class="cls-3">
    <g class="cls-2">
      <g class="cls-1">
        <path class="cls-5" d="m228.44,2.02l-6.73-1.11-3.17.19,6.33.82.16-.22,5.91,1.22-2.49-.89m2.86,5.99l.28.48-.59.1-.05-.31.36-.27m2.51,1.54h-.01s0,.01-.01.02c.01,0,.02-.02.02-.02m.89.16l-.44-.08.02.19.42-.11m-2.7-.48l-.4-.07-.44.52.06.37.43.22-.37.16.03.17.65-.17.72.36.14-.14-.22-.39.54-.14-.09-.44-.63.27-.41-.71m-23.04-4.51l-1.78.22-1.78.22c-.03.15-.05.3-.07.45-1.03-.24-2.05-.48-3.07-.72,2.23-.06,4.46-.11,6.7-.17m1.05,2.09l-.3.04-2.02.83,3.65.26.07-.21-1.4-.92m-19.51-2.86l-3.44.46-3.55.45,4.95.16c.68-.35,1.36-.71,2.04-1.07m42.89,7.39l-.3.16-1.57,4.25,2.55-1.22-.68-3.18m-25.05.07l-.57.03.02.03.56-.06m-24.89-6.9l-3.42.11-7.24,1.33-1.95.84.28.41.13-.15,2.07-.38,8.01-1.55,2.13-.62m23.63,8.56l-2.78.18-2.77.18,1.9-.02,2.92-.17.73-.17m13.45-6.37l1.01.55-5.27-.31-4.6.2,3,.52,5.1-.07,6.85.67,3.2.57-.86,3.97.48.04-2.73,1.15-4.28.11-.69-.37-1.38-.59-5.91,1.48,4.22-.81-2.78.95-4.05.96-1.8-.51-.48-.2,3.81-1.22,6.03-.89,6.61-1.27,1.6-1.64.65.05-.56-.15.11-.12-.28.08-3.4-.9-7.45-1c-6.09.11-9.66.16-10.69.12l-3.14-.28,7.08-1.06.08.05,3.73-.46,6.78.35m-24.32,3.61l-3.47.23-3.47.23c-.7.16-1.41.32-2.11.47l7.05-.56,2.01-.38m15.67.35l-6.63.06c.06-.03.89-.16,2.48-.39l-6.46.24,2.06-.63-2.52.47-1.05.26-3.74.69.16.17-.39.09-3.89.4.3.03-1.73.15,6.42-.3,1.21-.37,5.22-.27-6.29.64c4.46-.17,8.04-.33,10.73-.47l-.13-.24,4.24-.53m3.27-9.95l-7.29-.16-3.12.14c-2.31-.05-4.18-.14-5.61-.26-1.69.2-5.81.52-12.36.96l-4.29.94,2.35.16-5.14.92-3.49.39,3.92-1.07-7.41,1.73-3.34.57-4.86,1.35-4.18.55,5.18-.55c5.98-1.26,9.97-2.04,11.96-2.35l-7.16,1.7,2.56-.23,5.88-1.32,7.89-.94,5.44-.16,7.67-.77c.18.05-1.65.33-5.5.82l2.08-.06,7.49-.43,6.97-.08-1.27-.53,6.96.26,5.96.42,1.12-.19-5.1-.33-.95-.48-4.3-.65,1.93-.35m-52.77,2.93l-3.53.78-3.54.78-2.46.53,7.45-1.33,2.08-.74m-5.45,2.4l-1.47.38-1.48.38c.7-.07,1.4-.14,2.09-.21.29-.18.58-.37.86-.55m-2.95.76l-2.59.26,1.95-.09c.21-.06.43-.11.65-.17m37.03,6.98h-.13s-.12.02-.12.02c-2.72.28-5.44.55-8.16.82.17.04.33.07.5.1l7.91-.95m-37.2-4.53l-1.79-.15-3.85,1.21,4.31-.49,1.32-.56m65.55,10.41l-5.89,1.16-6.92,1.82,6.19-1.92,6.63-1.06m-43.17-7.18l-3.2.46-6.47,1.88,5.54-1.15-.04-.02,4.17-1.17m-27.06-4.32l-1.3-.09-1.3-.1c-2.41.55-4.81,1.09-7.22,1.64l1.88-.15,7.94-1.29m32.29,3.58l-.7.3-8.66,1.64.18.09-6.76,1.39.64-.46,7.96-2.1,5.01-.92-2.9.81,5.22-.74m-28.27.64l-3.31,1.02.27-.46,3.04-.56m18.48,2.01l-3.26.99-3.26,1c-.33.03-.67.06-1.01.09l7.53-2.08m-33.06-1.67h-.06s-.05-.02-.05-.02h-.03s.09.01.14.02m4.36-2.42l-3.62.52-2.68,1.63,1.83.26,2.64-1.36,1.83-1.04m81.53,21.16h-.3s.13.18.13.18c.06-.06.11-.12.17-.18m-.17.18l-.06.06-.05.06c.07,0,.14,0,.2,0l-.09-.12m-22.1-5.71l-1.48-.03-7.75,1.01,2.28-.38-2.9.46,5.57-.34,4.28-.72m-50.44-10.22l-5.91.51-1.41.17,1.04.19-1.02,1.43.58-.72,1.85-.65.8.67,4.07-1.59m60.17,16.09l-3.37-.06-3.37-.06,4.97-.21c.59.11,1.18.22,1.77.33m15.26-21.8l-2.31.66-4.71,1.54-5.48.82-1.24-.51c-1.95-.02-3.01-.06-3.16-.14l-3.18.71c.54-.08,1.81-.11,3.81-.1l-4.55.27-6.58,1.49-21.69,1.51-5.29.74,5.05-1.31-4.98.74-3.31,1.48-5.65,1.01-6.69,1.93-3.91.64,13.81-3.9,7.41-2.47-3.05.38,1.51-.73,4.79-.86,6.28-.54,1.81-.73,4.61-.4-.67.03,2.1-.21c-2.52-.27-4.16-.47-4.95-.62l-3.88-.22c6.85-.44,11.69-.88,14.52-1.33l-.12.22-1.27.23h.07s1.2-.23,1.2-.23l-.05.09,4.08-.68,4.86.27,3.4-.29-.05.39,8.53-.51,3.34.1c1.28.18,3.14.35,5.57.52m-93.64,6.14l-2.14.06-1.31,1.42,3.29-1.11.16-.36m12.5,1.48l-1.52.66-1.51.66c-.64.35-1.28.71-1.92,1.07,2.37-.62,4.74-1.24,7.12-1.86l-2.18-.52m80.88,13.64l-.09.59-2.43-.08.57.75-2.85-.11.17.2,2.02.03.85.14,1.26,1.63-.11.72.84,1.36-.05-1.21,1.96,2.55.52-5.88-2.62-.09-.03-.59m-6.18.35l-5.07.76-1.81.26-3.64.74-3.95-.02.21-.44-7.42.02-3.25-.08,7.09-.16,7.35.05,1.79-.9,1,.19,4.24-.19.8-.11,2.66-.1m-82.23-15.49l-1.84.26-4.22.91-6.98,2.36,6.13-1.33,2.1-.81,4.82-1.38m-13.04,3.52h-.01s-.02,0-.02,0c-.01,0-.02.01-.03.01.02,0,.04-.01.05-.02m101.83,20.45l.02.41-.73-.28.71-.13m-100.56-23.29l-1.81.47-1.81.47c-1.71.38-3.43.75-5.15,1.13l5.23-.92c1.18-.39,2.35-.77,3.53-1.15m76.57,15.36l-7.29.54-6.99.67,5.41-.91,8.87-.3m23.92,6.15l.06,1.49-1.55.26-4.83-.08.24-.09,4.39.04.21-1.31,1.47-.31m-88.96-19.33l-2.57.15-7.34,1.93-1.23.78c2.65-.7,6.36-1.66,11.14-2.86m42.06,13.21l-.65.16-1.52.19,2.17-.35m-17.1-16.48l-1.48.99-3.32.67-.34.74,2.88-.41-7.35,2.28-6.49,1.1-5.39,2.54-3.09.86.08-.41-4.41,1.59,6.94-3.13,7.41-2.71,6.78-1.88,2.03-.82.06.04,5.71-1.47m-42.8,6.11l-.63.11-6.58,1.83,2.99-.67,4.21-1.27m51.06,13.01l-3.44.61,1.86-.46,1.58-.15m51.26,5.73l-.47.08-7.34,1.26-6.9,1.47-1.37.06,6.57-1.57,4.14-1.07-2.54.14,3.49-.38,4.43.02m-47.32-5.85l-7.92,1.24-1.64.11,7.08-1.1,2.48-.26m4.04.43l-4.35,1.1-1.88.36-5.72.72,1.21-.63,6.93-1.12,3.81-.44m28.07,7.23l-2.99,1.08-5.45,1.28,5-1.55.6-.34,2.84-.46m-86.98-15.32l-5.53.83,1.07.17,4.1-.48.36-.52m36.32,6.81l-6.65,2.26-4.26,1.39,5.05-1.89.18-.66,5.68-1.09m31.08,13.31l-.82.32-.82.32-3.15,1.35c-.5-.13-1-.26-1.49-.38l6.28-1.61m-89-23.07l-7.17,2.3-7.03,2.33-4.2,2.47,6.43-2.96,6.43-2.08,5.54-2.05m19.85,26.29l-1.43.71.44-.41.98-.3m-21.71,4.28l-3.18,1.17.88-1.55c.42.2.84.41,1.26.61l1.04-.23m1.78-13.31l-3.43,1.95-6.26,3.36-6.24,3.02-5.51,3,3.41-2.35,6.03-3.25-2.35,1.45c4.15-2.29,7.93-4.31,11.34-6.04l-3.19,2.07,6.21-3.21m1.1,2.86l-5.87,2.92-12.29,6.56,2.89-1.8,6.82-3.82,5.79-3.38,2.67-.47m55.8,14.91l-6.54,2.03,2.08-.97-6.84,3-6.76,3.23-1.11.74,6.68-3.13,5.53-2.09,1.08-.06,5.88-2.74m-62.68-3.44l-.17.63-3.02,1.04-1.76.36-.04-.09,4.99-1.93m5.71-13.92l-1.86,2.56c-4.64,2.12-7.93,3.56-9.88,4.33l-5.08,2.97-4.38,2-4.41,2.49,6.22-4.11,6.42-3.4,6.85-3.52,3.86-1.11,2.24-2.21m53.43,20.05l-4.44,1.72-6.94,3.19-5.77,3.24,8.82-4.31,5.91-2.53,2.42-1.32m-59.71-3.54l-2.14,1.31-2.14,1.31c-1.28.46-2.56.92-3.84,1.38l4.86-2.47,3.26-1.53m-1.4-.64l-3.92,2.21-2.69.65-1.33.81-2.62.88,2.75-1.62,3.93-1.51,3.87-1.41m-9.74-.51l-5.67,2.37-7.43,2.32-.47.16,6.56-2.28,7.01-2.58m13.08,6.13l-2.71,1.82-2.7,1.82c-1.17.36-2.33.72-3.49,1.08l6.81-3.65,2.1-1.06m-15.48,1.1l-.78.42-1.23.97-.6.19h-1.16l3.22-1.31.54-.27m-13.08.34l-1.66.29.22.35,1.47-.53-.03-.1m-1.44.63l-.16.06-.16.06.84.71-.52-.83m3.57,3.44l-.52.17.23.33.47-.2.02-.12-.21-.18m-3.05-2.61l2.11,3.39.05-.02-.49-1.95-1.67-1.42m4.46,3.81l.43.36-.95.6-.58-.83,1.11-.13m-1.37.16l-.11.8-.46-.73c.19-.03.39-.05.57-.07m2.21.55l.06.05-1.51,1.05,1.45-1.1m3.95,2.72l-1.13.42-2.01,1.2,1.4-.48,1.74-1.14m9.1-6.32l-1.84,1.58-7.26,4.74,3.08-1.14,4.45-2.28-2.85,1.63,3.21-.47-6.95,3.21-1.56.46,1.99-1.38-4.81,2.05-.42-.68,2.74-.98,3.13-1.87,3-2.37,4.1-2.49M231.77,3.81l.6,2.8c-1.72-.14-2.35-.46-1.88-.97l-.13.57c-.55-.51-3.6-1-9.15-1.48l6.61,1.36c-3.26.36-5.54.17-6.86-.59l-7.77-.02-1.27-.42,4.54-.46-7.76-.56c-4.04.44-8.69.72-13.97.86,2.06-.42,2.79-.78,2.19-1.09l-20.68,2.89c-4.76,1.01-9.55,1.96-14.39,2.84l-5.41.89c8.9-1.68,9.21-1.84.93-.5.53.26-4.25,1.38-14.34,3.39l4.87-1.81-10.94,2.46.73.92,5.98-.97-2.04.93c1.27.23,3.25.19,5.95-.09l.76.51,3.98-1.05-.65.82,4.29-.34-.52.84,3.78-.29-3.34.95.9.55c-5.62,1.21-11.3,2.96-17.03,5.24-22.77,10.57-36.53,16.55-41.28,17.95-1.71.99-4.12,2.52-7.21,4.58-2.01.84-2.02.63-.04-.65-4.4,2.3-8.81,4.58-13.23,6.84l-13.58,8.4,1.43,5.59,2.22-2.33,1.03.24-.16,1.09-3.07,1.1c.17,2.42.95,3.71,2.35,3.89l-.16,1.1-.37-.53c.16-.07-.81.34-2.91,1.24l2.47-.29c.66.55.63,2.45-.08,5.69l1.42-.5,1.41,5.49,30.39-14.33c-9.74,4.48-17.97,8.05-24.69,10.69l2.3-1.37-4.24,1.61-.75-.04c-.76-.78-.73-1.44.06-1.97l6.61-3.04-1.6,1,5.47-2.18c-.38-.39.64-1.33,3.04-2.83l10.07-4.13-5.74,3.32.32.02-2.14,1.13c9.19-3.97,14.51-5.93,15.94-5.89,3.31-1.82,7.04-3.56,11.17-5.21l7.46-2.01c-3.27,1.26-2.5,1.67,2.29,1.22l27.76-7.94,12.45-2.46-19.48,7.97c-4.52,2.45-7.54,3.85-9.07,4.2l-15.89,9.05,2.25-1.13-.46.78c-10.51,5.83-16.77,9.83-18.78,11.99l-12.37,11.11,5.7-4.49-8.69,8.54c2.22-2.55,7.76-7.33,16.62-14.34l-14.47,12.99-1.47,2.34,5.09-4.8c5.14-3.82,5.43-3.72.88.29l13.51-10.84c3.93-2.84,8.26-5.58,12.99-8.22l3.44-1.68-6.83,4.01,6.86-2.74c4.93-3.05,5.17-3.39.73-1.03l6.23-3.54c2.94-1.31,6.69-3.16,11.26-5.53l24-9.92,10.43-3.57-.79.49c-5.09,1.83-9.65,3.63-13.7,5.37l-5.74,2.52c7.22-2.98,6.98-2.73-.73.75l-6.29,2.6,26.22-10.07-3.63,1.81-18.75,7.46,4.02-.94,6.48-2.96c5.52-2.27,9.36-3.57,11.51-3.93l-14.46,6.05.14.45,13.32-5.26c7.96-2.08,8.05-1.99.28.28l12.84-2.97,24.23-7.01c8.53-1.67,7.95-1.38-1.75.89l12.51-2.57-3.2-.06c1.37-.38,4.11-.41,8.23-.09l-.84-.97,1.81-.32-1.33-1.73-.15,1.73-.53.09-1.14-1.32.92-.19-1.01-1.65.08,1.82-1.2-1.39c.66-1.18.38-2.39-.83-3.6l-2.3-.02-.59-.69-4.07-.06,3.9-.14-.71-.82,2.76-.11-.15-.19-7.69.15-.42-.54,2.41-.16-7.7-.1-.02.18-4.34.27-.44-.34,3.49-.66-2.62-.18-6.74-.17-8.08.28-9.53,1.68c-1.73.34-2.85.26-3.36-.27l-11.82,2.67-17.4,2.84c5.47-1.81,9.54-2.83,12.21-3.07l11.98-3.42,14.84-2.68-.5-.36,3.62-1.33,7.86-.76,13.09-3.92,12.16-1.84,7.03-2.37-19.79,3.46c1.14-.69,2.9-1.4,5.29-2.15l-7.3,1.52-.09-.69,2.65-.16,2.16-1.52c4.22-1.58,7.56-2.37,10.02-2.38,2.24-.75,4.04-1.53,5.37-2.34l1.37.1-.12-.74,1.51-.77.21-.58c-.23.59.13.56,1.06-.07l-.08-1.02c-.68.3-.84.22-.48-.24-1.04.97-1.31,1.43-.81,1.36l-.31-.16-1.15,1.17-.22-1.36-1.06.28,1.04-.44-.22-1.36c.47.18.72.13.75-.16l1.22.77,1.1-.47c-.47.33-.43.47.13.43l-.08-1.1,1.27-3.44-3.48-.59-.19-.68m-112.19,72.48l-5.12,3.14-5.92,4.21-5.58,4.39-5.48,4.72-4.83,4.93,4.9-4.78,5.64-4.73c3.48-2.77,7.03-5.47,10.63-8.11l5.76-3.78m-30.2,18.24h-.01s-2.98,3.38-2.98,3.38c.99-1.13,1.99-2.25,2.99-3.38"/>
      </g>
    </g>
  </g>
  <path d="m77.56,7.77l-1.4,2.06c-.74-.48-1.73-.99-2.98-1.52-1.24-.54-2.81-.81-4.71-.81s-3.68.35-5.15,1.04c-1.46.7-2.69,1.59-3.69,2.69-.99,1.1-1.74,2.35-2.25,3.77-.52,1.42-.77,2.83-.77,4.25,0,2.52.59,4.63,1.79,6.33,1.21,1.7,3.18,2.93,5.92,3.71.64.17,1.32.34,2.06.52.75.18,1.48.35,2.21.52.72.16,1.38.3,1.98.44.61.14,1.07.27,1.4.38,1.67.46,2.79,1.16,3.38,2.08.58.92.88,2.12.88,3.6,0,.71-.16,1.46-.46,2.25-.29.79-.75,1.53-1.38,2.21-.63.67-1.43,1.24-2.4,1.71-.97.46-2.11.69-3.42.69-1.78,0-3.3-.32-4.56-.96-1.25-.64-2.32-1.47-3.21-2.5-.88-1.03-1.6-2.18-2.17-3.46-.57-1.28-1.03-2.55-1.38-3.81-.16-.5-.31-.75-.48-.75-.11,0-.2.06-.25.17-.06.1-.08.33-.08.69v10.4c0,.22.03.42.08.58.05.18.17.27.35.27.25,0,.53-.24.85-.73l1.65-2.5c.34.35.78.73,1.29,1.15.51.41,1.13.79,1.85,1.15.73.35,1.59.65,2.56.9.97.25,2.13.38,3.48.38,2.08,0,3.9-.35,5.46-1.04,1.57-.69,2.86-1.6,3.9-2.73,1.03-1.14,1.79-2.43,2.29-3.88.51-1.46.77-2.95.77-4.48,0-3.25-.81-5.88-2.42-7.88-1.61-2.01-3.99-3.32-7.15-3.92-.78-.14-1.74-.34-2.88-.6-1.13-.26-2.11-.54-2.96-.83-1.1-.39-1.89-1.01-2.38-1.88-.47-.88-.71-1.96-.71-3.27,0-.71.13-1.41.38-2.1.25-.69.61-1.3,1.1-1.83.5-.53,1.11-.95,1.85-1.27.75-.32,1.63-.48,2.63-.48.8,0,1.64.12,2.5.35.88.22,1.72.64,2.54,1.25.82.6,1.58,1.45,2.29,2.54.71,1.1,1.29,2.49,1.75,4.19.09.5.26.75.48.75.17,0,.26-.07.27-.23.03-.17.04-.35.04-.56V7.81c0-.34-.09-.52-.27-.52s-.35.16-.52.48Z"/>
  <path d="m107.94,30.87c-.14-.96-.43-2.02-.88-3.19-.45-1.17-1.12-2.26-2.02-3.29-.91-1.03-2.1-1.9-3.58-2.6-1.49-.71-3.36-1.06-5.63-1.06-2.03,0-3.8.35-5.31,1.04-1.5.7-2.76,1.6-3.77,2.71-1,1.11-1.75,2.39-2.25,3.83-.49,1.43-.73,2.89-.73,4.38s.24,2.95.73,4.38c.5,1.43,1.25,2.71,2.25,3.83,1.01,1.11,2.27,2.02,3.77,2.71,1.51.69,3.28,1.04,5.31,1.04,1.42,0,2.71-.19,3.9-.56,1.18-.38,2.24-.88,3.19-1.52.94-.64,1.74-1.38,2.4-2.21.65-.83,1.15-1.71,1.5-2.63.11-.25.17-.48.17-.69,0-.36-.13-.54-.38-.54-.21,0-.37.08-.48.23-.1.14-.24.37-.42.69-.39.78-.88,1.53-1.46,2.25-.58.72-1.29,1.37-2.1,1.94-.82.57-1.75,1.02-2.79,1.35s-2.22.5-3.52.5c-.54,0-1.03-.07-1.46-.21-.42-.14-.78-.4-1.08-.79-.29-.39-.52-.92-.69-1.6-.16-.69-.23-1.57-.23-2.65v-7.33h15.56Zm-15.56-4.94c0-2.83,1.13-4.25,3.4-4.25s3.29,1.42,3.29,4.25v3.94h-6.69v-3.94Z"/>
  <path d="m120.79,43.15V6.87l-10.83,2v.85l2.88-.52v33.94h-2.88v.85h13.71v-.85h-2.88Z"/>
  <path d="m137.04,43.15V6.87l-10.83,2v.85l2.88-.52v33.94h-2.88v.85h13.71v-.85h-2.88Z"/>
  <path d="m157.61,7.81l-10.73,32.58c-.25.74-.71,1.39-1.38,1.94-.66.54-1.54.81-2.67.81v.85h8.02v-.85c-.64,0-1.16-.06-1.54-.19-.39-.13-.7-.28-.92-.48-.21-.19-.35-.4-.42-.63-.07-.23-.1-.44-.1-.63,0-.21,0-.39.02-.54.03-.17.09-.39.19-.67l2.23-7.13h10.69l3.4,10.25h-2.88v.85h14.29v-.85h-2.85l-11.69-35.33h-3.67Zm-1.98,8.88l5.06,15.35h-10.04l4.98-15.35Z"/>
  <path d="m189.09,24.5v-4.56l-10.83,1.81v.9l2.88-.48v20.98h-2.88v.85h13.71v-.85h-2.88v-15.35c0-.53.13-1.13.38-1.79.25-.68.61-1.32,1.08-1.94.48-.63,1.05-1.15,1.69-1.56.64-.43,1.36-.65,2.17-.65-.39.24-.8.6-1.23,1.1-.42.5-.63,1.18-.63,2.02,0,1.03.33,1.86,1,2.5.68.64,1.6.96,2.77.96.93,0,1.78-.29,2.56-.88.78-.58,1.17-1.48,1.17-2.69,0-1.38-.45-2.41-1.33-3.1-.89-.69-2.09-1.04-3.6-1.04-1.42,0-2.64.35-3.67,1.06-1.03.71-1.81,1.61-2.35,2.71Z"/>
  <path d="m212.95,12.23h-.75c-.21,1.35-.57,2.53-1.08,3.54-.52,1-1.1,1.85-1.77,2.56-.66.71-1.36,1.3-2.13,1.77-.75.46-1.5.81-2.25,1.04h-2.85v.85h2.85v12.65c0,1.95.23,3.56.71,4.83.48,1.28,1.15,2.3,1.98,3.06.83.77,1.8,1.31,2.92,1.63,1.13.32,2.3.48,3.54.48,2.15,0,3.72-.45,4.71-1.33,1-.89,1.65-2.09,1.94-3.63v-.15c0-.39-.16-.58-.48-.58-.11,0-.22.06-.33.17-.1.1-.17.25-.21.46-.18,1.07-.58,1.91-1.21,2.52-.61.6-1.32.9-2.13.9-1.35,0-2.27-.58-2.75-1.75-.47-1.18-.71-3.09-.71-5.75v-13.5h3.98v-.85h-3.98v-8.92Z"/>
  <path d="m238.12,20.94l-1.1,1.33c-.46-.39-1.12-.74-1.98-1.06-.85-.32-1.87-.48-3.06-.48-1.6,0-2.98.23-4.15.69s-2.13,1.06-2.88,1.81c-.75.74-1.31,1.58-1.69,2.54-.36.96-.54,1.94-.54,2.94,0,1.06.18,2.06.54,3.02.38.96.92,1.79,1.63,2.5s1.57,1.27,2.6,1.67c1.03.41,2.21.6,3.56.6,1.21,0,2.17.12,2.9.35.72.24,1.27.54,1.65.9.38.35.61.74.71,1.17.11.42.17.82.17,1.21,0,.89-.38,1.71-1.13,2.46-.74.74-1.99,1.1-3.75,1.1-1.92,0-3.52-.48-4.81-1.46-1.29-.98-2.29-2.63-3-4.92-.18-.64-.4-.96-.65-.96-.28,0-.42.24-.42.73v6.85c0,.29.1.44.31.44.14,0,.26-.06.38-.17.11-.1.2-.22.27-.38l1.06-1.48c.67.5,1.58,1.01,2.75,1.52,1.18.51,2.55.77,4.1.77s2.9-.25,4.02-.75c1.14-.5,2.07-1.15,2.81-1.96.75-.82,1.31-1.74,1.69-2.77.38-1.03.56-2.07.56-3.15,0-1.01-.13-1.98-.38-2.9-.25-.93-.69-1.75-1.31-2.46-.61-.71-1.45-1.26-2.5-1.67-1.04-.42-2.35-.63-3.94-.63-1.92,0-3.29-.28-4.1-.83-.81-.57-1.21-1.36-1.21-2.4,0-.84.38-1.63,1.13-2.35.76-.73,1.96-1.1,3.6-1.1.59,0,1.21.11,1.85.33.64.21,1.23.51,1.79.9.57.39,1.05.86,1.46,1.42.42.54.71,1.17.9,1.88.09.53.27.79.52.79s.38-.3.38-.9v-5c0-.32-.09-.48-.27-.48-.17,0-.27.04-.31.1-.04.07-.1.14-.17.21Z"/>
  <path d="m3.96,60.88h.92l3.94,8.73h-1.04l-1.02-2.29H2.04l-1.04,2.29H0l3.96-8.73Zm2.4,5.56l-1.96-4.42-1.98,4.42h3.94Z"/>
  <path d="m13.24,69.76c-.46,0-.89-.08-1.29-.25-.41-.18-.75-.42-1.04-.73-.29-.3-.52-.66-.69-1.06-.17-.4-.25-.82-.25-1.27v-.02c0-.46.08-.89.25-1.29.17-.4.4-.76.69-1.06.29-.3.64-.55,1.04-.73.4-.18.83-.27,1.29-.27.3,0,.58.04.83.1.25.06.48.14.69.25.21.1.4.22.56.35.18.14.34.29.48.44l-.63.67c-.25-.26-.53-.48-.83-.67-.31-.19-.68-.29-1.1-.29-.32,0-.63.06-.92.19-.28.13-.52.3-.73.52-.2.22-.35.49-.48.79-.11.31-.17.64-.17.98v.02c0,.35.05.68.17.98.13.29.29.56.5.79.22.22.47.4.75.52.29.13.6.19.94.19.42,0,.78-.09,1.08-.27.32-.18.61-.41.88-.69l.6.58c-.32.36-.69.66-1.1.9-.41.22-.91.33-1.52.33Z"/>
  <path d="m22.57,68.32c-.14.2-.29.39-.46.56-.16.17-.33.32-.54.46-.2.13-.42.22-.67.29-.24.08-.5.13-.79.13-.39,0-.77-.08-1.13-.23-.36-.15-.69-.36-.98-.65-.29-.29-.53-.64-.71-1.04-.17-.42-.25-.89-.25-1.42v-.02c0-.51.08-.98.25-1.4.18-.42.42-.76.71-1.04.29-.29.61-.51.98-.67.36-.15.73-.23,1.13-.23.29,0,.56.04.81.13.25.07.47.17.67.29.21.13.39.27.54.44.17.17.31.34.44.52v-1.23h.94v8.38h-.94v-3.27Zm-2.29.58c.3,0,.59-.06.85-.19.28-.13.53-.29.75-.5.22-.22.4-.48.52-.79.13-.3.19-.64.19-1v-.02c0-.38-.06-.71-.19-1.02-.13-.3-.3-.56-.52-.77-.22-.21-.47-.38-.75-.5-.27-.13-.55-.19-.85-.19s-.6.06-.88.17c-.27.11-.5.28-.71.5-.21.21-.38.47-.5.77-.11.31-.17.66-.17,1.04v.02c0,.38.05.72.17,1.02.13.31.29.57.5.79.21.21.44.38.71.5.28.11.57.17.88.17Z"/>
  <path d="m28,69.76c-.39,0-.74-.06-1.04-.19-.29-.13-.55-.3-.77-.52-.21-.23-.37-.51-.48-.81-.11-.32-.17-.67-.17-1.04v-3.98h.96v3.73c0,.6.15,1.07.46,1.42.3.35.74.52,1.31.52.28,0,.53-.05.75-.15.23-.09.44-.23.6-.4.18-.18.32-.4.42-.65.09-.25.15-.52.15-.81v-3.67h.94v6.4h-.94v-1.1c-.21.33-.49.63-.83.88-.35.25-.8.38-1.35.38Z"/>
  <path d="m36.71,60.44l.98.46-1.4,1.35h-.75l1.17-1.81Zm-.65,9.31c-.43,0-.84-.08-1.23-.23-.39-.17-.73-.4-1.02-.69s-.52-.64-.69-1.04c-.17-.42-.25-.88-.25-1.38v-.02c0-.46.07-.89.23-1.29.15-.4.36-.76.63-1.06.28-.3.6-.54.98-.71.38-.18.78-.27,1.23-.27s.9.09,1.27.27c.38.18.69.43.94.73.26.31.46.67.58,1.08.14.41.21.84.21,1.31v.15s-.01.09-.02.15h-5.08c.04.35.13.66.25.94.14.27.3.49.5.69.21.18.44.32.69.42.26.08.54.13.83.13.44,0,.82-.07,1.13-.23.32-.17.61-.39.88-.67l.6.54c-.32.36-.69.66-1.1.88-.42.21-.93.31-1.54.31Zm1.9-3.69c-.03-.29-.09-.57-.19-.83-.08-.26-.22-.49-.4-.69-.17-.21-.38-.36-.63-.48-.24-.13-.52-.19-.83-.19-.28,0-.54.06-.77.17-.24.11-.45.27-.65.46-.18.2-.33.43-.44.69-.11.27-.19.56-.23.88h4.13Z"/>
  <path d="m40.6,63.22h.96v1.67c.11-.26.25-.51.42-.73.18-.22.38-.41.6-.56.22-.17.46-.29.73-.38.26-.08.55-.11.85-.1v1.02h-.06c-.35,0-.68.06-1,.19-.31.13-.58.31-.81.56-.22.24-.41.54-.54.92-.13.36-.19.79-.19,1.27v2.54h-.96v-6.4Z"/>
  <path d="m45.63,60.76h1.1v1.06h-1.1v-1.06Zm.06,2.46h.96v6.4h-.96v-6.4Z"/>
  <path d="m48.86,63.22h.96v1.67c.11-.26.25-.51.42-.73.18-.22.38-.41.6-.56.22-.17.46-.29.73-.38.26-.08.55-.11.85-.1v1.02h-.06c-.35,0-.68.06-1,.19-.31.13-.58.31-.81.56-.22.24-.41.54-.54.92-.13.36-.19.79-.19,1.27v2.54h-.96v-6.4Z"/>
  <path d="m60.28,69.76c-.39,0-.77-.08-1.13-.23-.36-.15-.69-.36-.98-.65-.29-.29-.53-.64-.71-1.04-.17-.42-.25-.89-.25-1.42v-.02c0-.51.08-.98.25-1.4.18-.42.42-.76.71-1.04.29-.29.61-.51.98-.67.36-.15.73-.23,1.13-.23.29,0,.56.04.81.13.25.07.47.17.67.29.21.13.39.27.54.44.17.17.31.34.44.52v-3.88h.94v9.04h-.94v-1.29c-.14.2-.29.39-.46.56-.16.17-.33.32-.54.46-.2.13-.42.22-.67.29-.24.08-.5.13-.79.13Zm.17-.85c.3,0,.59-.06.85-.19.28-.13.53-.29.75-.5.22-.22.4-.48.52-.79.13-.3.19-.64.19-1v-.02c0-.38-.06-.71-.19-1.02-.13-.3-.3-.56-.52-.77-.22-.21-.47-.38-.75-.5-.27-.13-.55-.19-.85-.19s-.6.06-.88.17c-.27.11-.5.28-.71.5-.21.21-.38.47-.5.77-.11.31-.17.66-.17,1.04v.02c0,.38.05.72.17,1.02.13.31.29.57.5.79.21.21.44.38.71.5.28.11.57.17.88.17Z"/>
  <path d="m68.6,69.76c-.43,0-.84-.08-1.23-.23-.39-.17-.73-.4-1.02-.69s-.52-.64-.69-1.04c-.17-.42-.25-.88-.25-1.38v-.02c0-.46.07-.89.23-1.29.15-.4.36-.76.63-1.06.28-.3.6-.54.98-.71.38-.18.78-.27,1.23-.27s.9.09,1.27.27c.38.18.69.43.94.73.26.31.46.67.58,1.08.14.41.21.84.21,1.31v.15s-.01.09-.02.15h-5.08c.04.35.13.66.25.94.14.27.3.49.5.69.21.18.44.32.69.42.26.08.54.13.83.13.44,0,.82-.07,1.13-.23.32-.17.61-.39.88-.67l.6.54c-.32.36-.69.66-1.1.88-.42.21-.93.31-1.54.31Zm1.9-3.69c-.03-.29-.09-.57-.19-.83-.08-.26-.22-.49-.4-.69-.17-.21-.38-.36-.63-.48-.24-.13-.52-.19-.83-.19-.28,0-.54.06-.77.17-.24.11-.45.27-.65.46-.18.2-.33.43-.44.69-.11.27-.19.56-.23.88h4.13Z"/>
  <path d="m75.26,69.74c-.47,0-.95-.08-1.42-.25-.46-.17-.87-.4-1.23-.69l.48-.69c.34.27.71.47,1.08.6.38.14.75.21,1.13.21s.71-.09.96-.27c.25-.18.38-.42.38-.73v-.04c0-.15-.05-.28-.15-.4-.08-.11-.2-.21-.35-.29-.14-.09-.31-.17-.5-.23-.2-.07-.4-.14-.6-.21-.25-.07-.5-.15-.75-.23s-.48-.19-.69-.31c-.2-.14-.36-.3-.5-.5-.13-.21-.19-.46-.19-.75v-.04c0-.26.05-.51.17-.73.11-.23.26-.43.46-.58.19-.17.42-.29.69-.38.26-.08.55-.13.88-.13.39,0,.78.06,1.19.19.42.13.78.29,1.1.5l-.42.73c-.31-.19-.63-.34-.96-.46-.32-.11-.64-.17-.94-.17-.39,0-.7.09-.92.27-.22.18-.33.41-.33.67v.02c0,.16.04.29.13.4.09.11.22.21.38.29.15.08.32.16.52.23.21.06.42.12.63.19.25.07.49.16.73.25.25.08.47.2.67.33.21.14.36.31.48.52.13.2.19.44.19.73v.02c0,.31-.06.58-.19.81-.11.24-.27.44-.48.6-.2.16-.43.28-.71.38-.28.08-.58.13-.9.13Z"/>
  <path d="m85.93,69.76c-.47,0-.91-.08-1.31-.25-.41-.18-.76-.42-1.06-.73-.29-.3-.52-.65-.69-1.04-.17-.4-.25-.83-.25-1.29v-.02c0-.46.08-.89.25-1.29.17-.4.4-.76.69-1.06.3-.3.66-.55,1.06-.73.4-.18.84-.27,1.33-.27s.93.09,1.33.27c.42.18.77.43,1.06.73.29.29.52.64.69,1.04.17.41.25.83.25,1.29v.02c0,.45-.08.88-.25,1.29-.17.41-.41.76-.71,1.06-.29.31-.65.55-1.06.73-.41.17-.85.25-1.33.25Zm.02-.85c.34,0,.67-.06.96-.19.29-.14.54-.32.75-.54.21-.22.36-.48.48-.77.11-.3.17-.63.17-.96v-.02c0-.34-.06-.67-.19-.98-.11-.3-.28-.57-.5-.79-.21-.22-.46-.4-.75-.52-.28-.14-.59-.21-.94-.21s-.67.07-.96.21c-.28.13-.52.3-.73.52-.2.22-.35.49-.48.79-.11.29-.17.61-.17.96v.02c0,.35.05.68.17.98.13.29.29.55.5.77.22.22.47.41.75.54.29.13.6.19.94.19Z"/>
  <path d="m93.8,69.76c-.43,0-.84-.08-1.23-.23-.39-.17-.73-.4-1.02-.69s-.52-.64-.69-1.04c-.17-.42-.25-.88-.25-1.38v-.02c0-.46.07-.89.23-1.29.15-.4.36-.76.63-1.06.28-.3.6-.54.98-.71.38-.18.78-.27,1.23-.27s.9.09,1.27.27c.38.18.69.43.94.73.26.31.46.67.58,1.08.14.41.21.84.21,1.31v.15s-.01.09-.02.15h-5.08c.04.35.13.66.25.94.14.27.3.49.5.69.21.18.44.32.69.42.26.08.54.13.83.13.44,0,.82-.07,1.13-.23.32-.17.61-.39.88-.67l.6.54c-.32.36-.69.66-1.1.88-.42.21-.93.31-1.54.31Zm1.9-3.69c-.03-.29-.09-.57-.19-.83-.08-.26-.22-.49-.4-.69-.17-.21-.38-.36-.63-.48-.24-.13-.52-.19-.83-.19-.28,0-.54.06-.77.17-.24.11-.45.27-.65.46-.18.2-.33.43-.44.69-.11.27-.19.56-.23.88h4.13Z"/>
  <path d="m100.69,69.76c-.39,0-.74-.06-1.04-.19-.29-.13-.55-.3-.77-.52-.21-.23-.37-.51-.48-.81-.11-.32-.17-.67-.17-1.04v-3.98h.96v3.73c0,.6.15,1.07.46,1.42.3.35.74.52,1.31.52.28,0,.53-.05.75-.15.23-.09.44-.23.6-.4.18-.18.32-.4.42-.65.09-.25.15-.52.15-.81v-3.67h.94v6.4h-.94v-1.1c-.21.33-.49.63-.83.88-.35.25-.8.38-1.35.38Z"/>
  <path d="m105.33,63.22h1.04l2.17,5.31,2.17-5.31h1.02l-2.79,6.44h-.83l-2.77-6.44Z"/>
  <path d="m113.22,63.22h.96v1.67c.11-.26.25-.51.42-.73.18-.22.38-.41.6-.56.22-.17.46-.29.73-.38.26-.08.55-.11.85-.1v1.02h-.06c-.35,0-.68.06-1,.19-.31.13-.58.31-.81.56-.22.24-.41.54-.54.92-.13.36-.19.79-.19,1.27v2.54h-.96v-6.4Z"/>
  <path d="m121.02,69.76c-.43,0-.84-.08-1.23-.23-.39-.17-.73-.4-1.02-.69s-.52-.64-.69-1.04c-.17-.42-.25-.88-.25-1.38v-.02c0-.46.07-.89.23-1.29.15-.4.36-.76.63-1.06.28-.3.6-.54.98-.71.38-.18.78-.27,1.23-.27s.9.09,1.27.27c.38.18.69.43.94.73.26.31.46.67.58,1.08.14.41.21.84.21,1.31v.15s-.01.09-.02.15h-5.08c.04.35.13.66.25.94.14.27.3.49.5.69.21.18.44.32.69.42.26.08.54.13.83.13.44,0,.82-.07,1.13-.23.32-.17.61-.39.88-.67l.6.54c-.32.36-.69.66-1.1.88-.42.21-.93.31-1.54.31Zm1.9-3.69c-.03-.29-.09-.57-.19-.83-.08-.26-.22-.49-.4-.69-.17-.21-.38-.36-.63-.48-.24-.13-.52-.19-.83-.19-.28,0-.54.06-.77.17-.24.11-.45.27-.65.46-.18.2-.33.43-.44.69-.11.27-.19.56-.23.88h4.13Z"/>
  <path d="m127.68,69.74c-.47,0-.95-.08-1.42-.25-.46-.17-.87-.4-1.23-.69l.48-.69c.34.27.71.47,1.08.6.38.14.75.21,1.13.21s.71-.09.96-.27c.25-.18.38-.42.38-.73v-.04c0-.15-.05-.28-.15-.4-.08-.11-.2-.21-.35-.29-.14-.09-.31-.17-.5-.23-.2-.07-.4-.14-.6-.21-.25-.07-.5-.15-.75-.23s-.48-.19-.69-.31c-.2-.14-.36-.3-.5-.5-.13-.21-.19-.46-.19-.75v-.04c0-.26.05-.51.17-.73.11-.23.26-.43.46-.58.19-.17.42-.29.69-.38.26-.08.55-.13.88-.13.39,0,.78.06,1.19.19.42.13.78.29,1.1.5l-.42.73c-.31-.19-.63-.34-.96-.46-.32-.11-.64-.17-.94-.17-.39,0-.7.09-.92.27-.22.18-.33.41-.33.67v.02c0,.16.04.29.13.4.09.11.22.21.38.29.15.08.32.16.52.23.21.06.42.12.63.19.25.07.49.16.73.25.25.08.47.2.67.33.21.14.36.31.48.52.13.2.19.44.19.73v.02c0,.31-.06.58-.19.81-.11.24-.27.44-.48.6-.2.16-.43.28-.71.38-.28.08-.58.13-.9.13Z"/>
  <path d="m135.44,63.22h.96v1.1c.21-.34.48-.64.83-.88.34-.25.8-.38,1.35-.38.39,0,.73.06,1.02.19.3.13.56.31.77.54.22.22.39.49.5.81.11.31.17.65.17,1.02v3.98h-.96v-3.73c0-.59-.16-1.07-.46-1.42-.31-.34-.74-.52-1.31-.52-.28,0-.54.05-.77.15-.24.1-.45.24-.63.42-.17.17-.3.38-.4.63-.08.25-.13.52-.13.81v3.67h-.96v-6.4Z"/>
  <path d="m143.16,60.94h1.17v.06l-1,3.31h-.52l.35-3.38Z"/>
  <path d="m148.01,69.76c-.31,0-.6-.04-.9-.13-.28-.08-.53-.21-.75-.38-.22-.18-.41-.39-.54-.63-.14-.25-.21-.54-.21-.88v-.02c0-.34.06-.65.19-.9.14-.25.32-.46.56-.63.25-.18.54-.31.88-.4.33-.09.7-.15,1.1-.15s.78.03,1.08.08c.3.04.6.1.9.19v-.23c0-.58-.17-1.02-.5-1.31s-.81-.44-1.42-.44c-.38,0-.72.05-1.04.15-.31.08-.6.2-.9.33l-.29-.79c.36-.17.72-.29,1.08-.38.36-.09.78-.15,1.25-.15.9,0,1.59.24,2.06.71.44.43.67,1.05.67,1.85v3.92h-.92v-.96c-.22.28-.52.54-.9.77-.38.22-.85.33-1.42.33Zm.17-.77c.3,0,.58-.04.83-.13.26-.08.49-.2.69-.35.19-.15.34-.33.46-.54.11-.21.17-.44.17-.71v-.63c-.24-.05-.52-.11-.83-.17-.31-.07-.66-.1-1.04-.1-.6,0-1.06.13-1.4.38-.32.24-.48.56-.48.96v.02c0,.2.04.38.13.54.09.17.21.31.35.42.15.1.32.18.52.23.19.06.4.08.6.08Z"/>
  <path d="m156.99,60.76h1.1v1.06h-1.1v-1.06Zm-.54,10.88c-.11,0-.22-.01-.31-.02-.08,0-.18-.02-.27-.04v-.79c.07.03.15.04.23.04h.23c.22,0,.4-.07.52-.21.14-.13.21-.34.21-.65v-6.75h.96v6.77c0,.57-.14.98-.42,1.25-.28.26-.66.4-1.15.4Z"/>
  <path d="m162.14,69.76c-.31,0-.6-.04-.9-.13-.28-.08-.53-.21-.75-.38-.22-.18-.41-.39-.54-.63-.14-.25-.21-.54-.21-.88v-.02c0-.34.06-.65.19-.9.14-.25.32-.46.56-.63.25-.18.54-.31.88-.4.33-.09.7-.15,1.1-.15s.78.03,1.08.08c.3.04.6.1.9.19v-.23c0-.58-.17-1.02-.5-1.31s-.81-.44-1.42-.44c-.38,0-.72.05-1.04.15-.31.08-.6.2-.9.33l-.29-.79c.36-.17.72-.29,1.08-.38.36-.09.78-.15,1.25-.15.9,0,1.59.24,2.06.71.44.43.67,1.05.67,1.85v3.92h-.92v-.96c-.22.28-.52.54-.9.77-.38.22-.85.33-1.42.33Zm.17-.77c.3,0,.58-.04.83-.13.26-.08.49-.2.69-.35.19-.15.34-.33.46-.54.11-.21.17-.44.17-.71v-.63c-.24-.05-.52-.11-.83-.17-.31-.07-.66-.1-1.04-.1-.6,0-1.06.13-1.4.38-.32.24-.48.56-.48.96v.02c0,.2.04.38.13.54.09.17.21.31.35.42.15.1.32.18.52.23.19.06.4.08.6.08Z"/>
  <path d="m167.39,63.22h.96v1.08c.11-.17.23-.32.35-.46.13-.15.27-.28.44-.4.17-.11.34-.2.54-.27.21-.07.45-.1.73-.1.51,0,.94.13,1.27.38.34.24.61.54.79.92.11-.18.23-.34.38-.5.15-.15.32-.28.5-.4.18-.13.38-.22.6-.29.23-.07.49-.1.77-.1.73,0,1.31.23,1.73.69.43.46.65,1.09.65,1.9v3.96h-.96v-3.73c0-.63-.15-1.1-.44-1.44s-.7-.5-1.23-.5c-.24,0-.47.04-.69.13-.21.08-.4.22-.56.4-.16.17-.28.38-.38.63-.08.24-.13.52-.13.83v3.69h-.96v-3.77c0-.59-.15-1.06-.44-1.4s-.7-.5-1.21-.5c-.25,0-.49.05-.71.15-.21.1-.4.24-.56.42-.16.18-.28.4-.38.65-.08.24-.13.51-.13.81v3.65h-.96v-6.4Z"/>
  <path d="m181.04,69.76c-.31,0-.6-.04-.9-.13-.28-.08-.53-.21-.75-.38-.22-.18-.41-.39-.54-.63-.14-.25-.21-.54-.21-.88v-.02c0-.34.06-.65.19-.9.14-.25.32-.46.56-.63.25-.18.54-.31.88-.4.33-.09.7-.15,1.1-.15s.78.03,1.08.08c.3.04.6.1.9.19v-.23c0-.58-.17-1.02-.5-1.31s-.81-.44-1.42-.44c-.38,0-.72.05-1.04.15-.31.08-.6.2-.9.33l-.29-.79c.36-.17.72-.29,1.08-.38.36-.09.78-.15,1.25-.15.9,0,1.59.24,2.06.71.44.43.67,1.05.67,1.85v3.92h-.92v-.96c-.22.28-.52.54-.9.77-.38.22-.85.33-1.42.33Zm.17-.77c.3,0,.58-.04.83-.13.26-.08.49-.2.69-.35.19-.15.34-.33.46-.54.11-.21.17-.44.17-.71v-.63c-.24-.05-.52-.11-.83-.17-.31-.07-.66-.1-1.04-.1-.6,0-1.06.13-1.4.38-.32.24-.48.56-.48.96v.02c0,.2.04.38.13.54.09.17.21.31.35.42.15.1.32.18.52.23.19.06.4.08.6.08Z"/>
  <path d="m186.31,60.76h1.1v1.06h-1.1v-1.06Zm.06,2.46h.96v6.4h-.96v-6.4Z"/>
  <path d="m191.67,69.74c-.47,0-.95-.08-1.42-.25-.46-.17-.87-.4-1.23-.69l.48-.69c.34.27.71.47,1.08.6.38.14.75.21,1.13.21s.71-.09.96-.27c.25-.18.38-.42.38-.73v-.04c0-.15-.05-.28-.15-.4-.08-.11-.2-.21-.35-.29-.14-.09-.31-.17-.5-.23-.2-.07-.4-.14-.6-.21-.25-.07-.5-.15-.75-.23s-.48-.19-.69-.31c-.2-.14-.36-.3-.5-.5-.13-.21-.19-.46-.19-.75v-.04c0-.26.05-.51.17-.73.11-.23.26-.43.46-.58.19-.17.42-.29.69-.38.26-.08.55-.13.88-.13.39,0,.78.06,1.19.19.42.13.78.29,1.1.5l-.42.73c-.31-.19-.63-.34-.96-.46-.32-.11-.64-.17-.94-.17-.39,0-.7.09-.92.27-.22.18-.33.41-.33.67v.02c0,.16.04.29.13.4.09.11.22.21.38.29.15.08.32.16.52.23.21.06.42.12.63.19.25.07.49.16.73.25.25.08.47.2.67.33.21.14.36.31.48.52.13.2.19.44.19.73v.02c0,.31-.06.58-.19.81-.11.24-.27.44-.48.6-.2.16-.43.28-.71.38-.28.08-.58.13-.9.13Z"/>
  <path d="m202.86,60.44l.98.46-1.4,1.35h-.75l1.17-1.81Zm-.65,9.31c-.43,0-.84-.08-1.23-.23-.39-.17-.73-.4-1.02-.69s-.52-.64-.69-1.04c-.17-.42-.25-.88-.25-1.38v-.02c0-.46.07-.89.23-1.29.15-.4.36-.76.63-1.06.28-.3.6-.54.98-.71.38-.18.78-.27,1.23-.27s.9.09,1.27.27c.38.18.69.43.94.73.26.31.46.67.58,1.08.14.41.21.84.21,1.31v.15s-.01.09-.02.15h-5.08c.04.35.13.66.25.94.14.27.3.49.5.69.21.18.44.32.69.42.26.08.54.13.83.13.44,0,.82-.07,1.13-.23.32-.17.61-.39.88-.67l.6.54c-.32.36-.69.66-1.1.88-.42.21-.93.31-1.54.31Zm1.9-3.69c-.03-.29-.09-.57-.19-.83-.08-.26-.22-.49-.4-.69-.17-.21-.38-.36-.63-.48-.24-.13-.52-.19-.83-.19-.28,0-.54.06-.77.17-.24.11-.45.27-.65.46-.18.2-.33.43-.44.69-.11.27-.19.56-.23.88h4.13Z"/>
  <path d="m208.89,69.72c-.27,0-.51-.04-.73-.1-.22-.05-.42-.15-.58-.29-.16-.15-.28-.34-.38-.56-.08-.23-.13-.51-.13-.83v-3.88h-.9v-.83h.9v-1.94h.96v1.94h2.02v.83h-2.02v3.75c0,.39.09.67.29.83.19.16.46.23.79.23.15,0,.3-.01.44-.04.15-.04.31-.1.48-.19v.81c-.17.1-.35.17-.54.21-.18.04-.39.06-.6.06Z"/>
  <path d="m215.18,60.44l.98.46-1.4,1.35h-.75l1.17-1.81Zm-.65,9.31c-.43,0-.84-.08-1.23-.23-.39-.17-.73-.4-1.02-.69s-.52-.64-.69-1.04c-.17-.42-.25-.88-.25-1.38v-.02c0-.46.07-.89.23-1.29.15-.4.36-.76.63-1.06.28-.3.6-.54.98-.71.38-.18.78-.27,1.23-.27s.9.09,1.27.27c.38.18.69.43.94.73.26.31.46.67.58,1.08.14.41.21.84.21,1.31v.15s-.01.09-.02.15h-5.08c.04.35.13.66.25.94.14.27.3.49.5.69.21.18.44.32.69.42.26.08.54.13.83.13.44,0,.82-.07,1.13-.23.32-.17.61-.39.88-.67l.6.54c-.32.36-.69.66-1.1.88-.42.21-.93.31-1.54.31Zm1.9-3.69c-.03-.29-.09-.57-.19-.83-.08-.26-.22-.49-.4-.69-.17-.21-.38-.36-.63-.48-.24-.13-.52-.19-.83-.19-.28,0-.54.06-.77.17-.24.11-.45.27-.65.46-.18.2-.33.43-.44.69-.11.27-.19.56-.23.88h4.13Z"/>
  <path d="m224.7,69.76c-.31,0-.6-.04-.9-.13-.28-.08-.53-.21-.75-.38-.22-.18-.41-.39-.54-.63-.14-.25-.21-.54-.21-.88v-.02c0-.34.06-.65.19-.9.14-.25.32-.46.56-.63.25-.18.54-.31.88-.4.33-.09.7-.15,1.1-.15s.78.03,1.08.08c.3.04.6.1.9.19v-.23c0-.58-.17-1.02-.5-1.31s-.81-.44-1.42-.44c-.38,0-.72.05-1.04.15-.31.08-.6.2-.9.33l-.29-.79c.36-.17.72-.29,1.08-.38.36-.09.78-.15,1.25-.15.9,0,1.59.24,2.06.71.44.43.67,1.05.67,1.85v3.92h-.92v-.96c-.22.28-.52.54-.9.77-.38.22-.85.33-1.42.33Zm.17-.77c.3,0,.58-.04.83-.13.26-.08.49-.2.69-.35.19-.15.34-.33.46-.54.11-.21.17-.44.17-.71v-.63c-.24-.05-.52-.11-.83-.17-.31-.07-.66-.1-1.04-.1-.6,0-1.06.13-1.4.38-.32.24-.48.56-.48.96v.02c0,.2.04.38.13.54.09.17.21.31.35.42.15.1.32.18.52.23.19.06.4.08.6.08Z"/>
  <path d="m232.31,69.76c-.39,0-.74-.06-1.04-.19-.29-.13-.55-.3-.77-.52-.21-.23-.37-.51-.48-.81-.11-.32-.17-.67-.17-1.04v-3.98h.96v3.73c0,.6.15,1.07.46,1.42.3.35.74.52,1.31.52.28,0,.53-.05.75-.15.23-.09.44-.23.6-.4.18-.18.32-.4.42-.65.09-.25.15-.52.15-.81v-3.67h.94v6.4h-.94v-1.1c-.21.33-.49.63-.83.88-.35.25-.8.38-1.35.38Z"/>
  <path d="m239.7,69.74c-.47,0-.95-.08-1.42-.25-.46-.17-.87-.4-1.23-.69l.48-.69c.34.27.71.47,1.08.6.38.14.75.21,1.13.21s.71-.09.96-.27c.25-.18.38-.42.38-.73v-.04c0-.15-.05-.28-.15-.4-.08-.11-.2-.21-.35-.29-.14-.09-.31-.17-.5-.23-.2-.07-.4-.14-.6-.21-.25-.07-.5-.15-.75-.23s-.48-.19-.69-.31c-.2-.14-.36-.3-.5-.5-.13-.21-.19-.46-.19-.75v-.04c0-.26.05-.51.17-.73.11-.23.26-.43.46-.58.19-.17.42-.29.69-.38.26-.08.55-.13.88-.13.39,0,.78.06,1.19.19.42.13.78.29,1.1.5l-.42.73c-.31-.19-.63-.34-.96-.46-.32-.11-.64-.17-.94-.17-.39,0-.7.09-.92.27-.22.18-.33.41-.33.67v.02c0,.16.04.29.13.4.09.11.22.21.38.29.15.08.32.16.52.23.21.06.42.12.63.19.25.07.49.16.73.25.25.08.47.2.67.33.21.14.36.31.48.52.13.2.19.44.19.73v.02c0,.31-.06.58-.19.81-.11.24-.27.44-.48.6-.2.16-.43.28-.71.38-.28.08-.58.13-.9.13Z"/>
  <path d="m245.86,69.74c-.47,0-.95-.08-1.42-.25-.46-.17-.87-.4-1.23-.69l.48-.69c.34.27.71.47,1.08.6.38.14.75.21,1.13.21s.71-.09.96-.27c.25-.18.38-.42.38-.73v-.04c0-.15-.05-.28-.15-.4-.08-.11-.2-.21-.35-.29-.14-.09-.31-.17-.5-.23-.2-.07-.4-.14-.6-.21-.25-.07-.5-.15-.75-.23s-.48-.19-.69-.31c-.2-.14-.36-.3-.5-.5-.13-.21-.19-.46-.19-.75v-.04c0-.26.05-.51.17-.73.11-.23.26-.43.46-.58.19-.17.42-.29.69-.38.26-.08.55-.13.88-.13.39,0,.78.06,1.19.19.42.13.78.29,1.1.5l-.42.73c-.31-.19-.63-.34-.96-.46-.32-.11-.64-.17-.94-.17-.39,0-.7.09-.92.27-.22.18-.33.41-.33.67v.02c0,.16.04.29.13.4.09.11.22.21.38.29.15.08.32.16.52.23.21.06.42.12.63.19.25.07.49.16.73.25.25.08.47.2.67.33.21.14.36.31.48.52.13.2.19.44.19.73v.02c0,.31-.06.58-.19.81-.11.24-.27.44-.48.6-.2.16-.43.28-.71.38-.28.08-.58.13-.9.13Z"/>
  <path d="m249.92,60.76h1.1v1.06h-1.1v-1.06Zm.06,2.46h.96v6.4h-.96v-6.4Z"/>
  <path d="m259,69.74c-.47,0-.95-.08-1.42-.25-.46-.17-.87-.4-1.23-.69l.48-.69c.34.27.71.47,1.08.6.38.14.75.21,1.13.21s.71-.09.96-.27c.25-.18.38-.42.38-.73v-.04c0-.15-.05-.28-.15-.4-.08-.11-.2-.21-.35-.29-.14-.09-.31-.17-.5-.23-.2-.07-.4-.14-.6-.21-.25-.07-.5-.15-.75-.23s-.48-.19-.69-.31c-.2-.14-.36-.3-.5-.5-.13-.21-.19-.46-.19-.75v-.04c0-.26.05-.51.17-.73.11-.23.26-.43.46-.58.19-.17.42-.29.69-.38.26-.08.55-.13.88-.13.39,0,.78.06,1.19.19.42.13.78.29,1.1.5l-.42.73c-.31-.19-.63-.34-.96-.46-.32-.11-.64-.17-.94-.17-.39,0-.7.09-.92.27-.22.18-.33.41-.33.67v.02c0,.16.04.29.13.4.09.11.22.21.38.29.15.08.32.16.52.23.21.06.42.12.63.19.25.07.49.16.73.25.25.08.47.2.67.33.21.14.36.31.48.52.13.2.19.44.19.73v.02c0,.31-.06.58-.19.81-.11.24-.27.44-.48.6-.2.16-.43.28-.71.38-.28.08-.58.13-.9.13Z"/>
  <path d="m263.06,60.76h1.1v1.06h-1.1v-1.06Zm.06,2.46h.96v6.4h-.96v-6.4Z"/>
  <path d="m266.29,63.22h.96v1.08c.11-.17.23-.32.35-.46.13-.15.27-.28.44-.4.17-.11.34-.2.54-.27.21-.07.45-.1.73-.1.51,0,.94.13,1.27.38.34.24.61.54.79.92.11-.18.23-.34.38-.5.15-.15.32-.28.5-.4.18-.13.38-.22.6-.29.23-.07.49-.1.77-.1.73,0,1.31.23,1.73.69.43.46.65,1.09.65,1.9v3.96h-.96v-3.73c0-.63-.15-1.1-.44-1.44s-.7-.5-1.23-.5c-.24,0-.47.04-.69.13-.21.08-.4.22-.56.4-.16.17-.28.38-.38.63-.08.24-.13.52-.13.83v3.69h-.96v-3.77c0-.59-.15-1.06-.44-1.4s-.7-.5-1.21-.5c-.25,0-.49.05-.71.15-.21.1-.4.24-.56.42-.16.18-.28.4-.38.65-.08.24-.13.51-.13.81v3.65h-.96v-6.4Z"/>
  <path d="m278.02,63.22h.96v1.29c.13-.19.26-.38.42-.54.17-.18.34-.33.54-.46.21-.13.43-.23.67-.31.25-.08.52-.13.81-.13.39,0,.76.08,1.13.23.38.16.7.38.98.67.29.28.52.63.69,1.04.18.41.27.87.27,1.4v.02c0,.52-.09.98-.27,1.4-.17.42-.4.77-.69,1.06-.28.28-.6.49-.98.65-.36.15-.74.23-1.13.23-.29,0-.56-.04-.81-.13-.25-.07-.47-.17-.67-.29-.2-.13-.38-.27-.54-.44-.16-.17-.29-.34-.42-.52v3.21h-.96v-8.38Zm3.23,5.69c.3,0,.59-.05.88-.17.28-.11.51-.27.71-.48.21-.22.36-.48.48-.79.13-.3.19-.65.19-1.04v-.02c0-.38-.06-.71-.19-1.02-.11-.3-.27-.56-.48-.77-.21-.22-.45-.39-.73-.5-.27-.13-.55-.19-.85-.19s-.58.06-.85.19c-.28.13-.53.3-.75.52-.22.21-.4.47-.52.77-.13.29-.19.63-.19,1v.02c0,.36.06.7.19,1,.13.31.3.57.52.79.22.21.47.38.75.5.28.13.56.19.85.19Z"/>
  <path d="m286.32,60.57h.96v9.04h-.96v-9.04Z"/>
  <path d="m292.29,69.76c-.43,0-.84-.08-1.23-.23-.39-.17-.73-.4-1.02-.69s-.52-.64-.69-1.04c-.17-.42-.25-.88-.25-1.38v-.02c0-.46.07-.89.23-1.29.15-.4.36-.76.63-1.06.28-.3.6-.54.98-.71.38-.18.78-.27,1.23-.27s.9.09,1.27.27c.38.18.69.43.94.73.26.31.46.67.58,1.08.14.41.21.84.21,1.31v.15s-.01.09-.02.15h-5.08c.04.35.13.66.25.94.14.27.3.49.5.69.21.18.44.32.69.42.26.08.54.13.83.13.44,0,.82-.07,1.13-.23.32-.17.61-.39.88-.67l.6.54c-.32.36-.69.66-1.1.88-.42.21-.93.31-1.54.31Zm1.9-3.69c-.03-.29-.09-.57-.19-.83-.08-.26-.22-.49-.4-.69-.17-.21-.38-.36-.63-.48-.24-.13-.52-.19-.83-.19-.28,0-.54.06-.77.17-.24.11-.45.27-.65.46-.18.2-.33.43-.44.69-.11.27-.19.56-.23.88h4.13Z"/>
</svg>